# xmcd
#
# Track frame offsets:
#	150
#	9457
#	26472
#	36742
#	48162
#	56490
#	69315
#	74882
#	96915
#	104222
#	114337
#	118560
#	129912
#	135845
#	150542
#	161322
#	172990
#	185820
#	207367
#	218992
#	227120
#	234057
#	242497
#	251107
#	260302
#	273525
#	285737
#	295700
#	301295
#	315665
#
# Disc length: 4295 seconds
#
# Revision: 0
# Processed by: cddbd v1.4PL0 Copyright (c) Steve Scherf et al.
# Submitted via: EasyCDDAExtractor 4.6.0.1
#
DISCID=ae10c51e
DTITLE=Kinderchor "Der Flohhaufen" - Die allerschonsten Kinderlieder, Vol. 2
DYEAR=1900
DGENRE=misc
TTITLE0=Es tanzt ein Bi-Ba-Butzemann
TTITLE1=Der Zauberer Korinthe
TTITLE2=Ich bin nicht dumm und frag warum?
TTITLE3=Drei Chinesen mit dem Kontrabass
TTITLE4=Viele Dinge gibts mit "K"
TTITLE5=Banana-Song
TTITLE6=Heissa, Kathreinerle
TTITLE7=Tier-Medley
TTITLE8=Die Uhr
TTITLE9=Brüderchen, komm tanz mit mir
TTITLE10=Schwimm, Schwamm, Schwumm
TTITLE11=Des Abends, wenn ich früh aufsteh
TTITLE12=Grashupfers Überstundenlied
TTITLE13=Sommer
TTITLE14=Weißt du, wieviel Sternlein stehen?
TTITLE15=Dschungelorchester
TTITLE16=Alle Elefanten
TTITLE17=Robo
TTITLE18=Ich mit dir und du mit mir
TTITLE19=Wenn ich ein Voglein wär
TTITLE20=Suse, liebe Suse - I fahr mit der Post
TTITLE21=Regentropfen
TTITLE22=Bruder Jakob
TTITLE23=Der Walfisch
TTITLE24=Ein Vogel wollte Hochzeit machen
TTITLE25=Paul und Saul
TTITLE26=Ein Hund kam in die Küche
TTITLE27=Regenmann
TTITLE28=Guter Mond, du gehst so stille
TTITLE29=Himmel und Erde
EXTD=ID3G:   0
EXTT0=
EXTT1=
EXTT2=
EXTT3=
EXTT4=
EXTT5=
EXTT6=
EXTT7=
EXTT8=
EXTT9=
EXTT10=
EXTT11=
EXTT12=
EXTT13=
EXTT14=
EXTT15=
EXTT16=
EXTT17=
EXTT18=
EXTT19=
EXTT20=
EXTT21=
EXTT22=
EXTT23=
EXTT24=
EXTT25=
EXTT26=
EXTT27=
EXTT28=
EXTT29=
PLAYORDER=
